<?xml version="1.0" standalone="no"?>
<!DOCTYPE svg PUBLIC "-//W3C//DTD SVG 20010904//EN"
 "http://www.w3.org/TR/2001/REC-SVG-20010904/DTD/svg10.dtd">
<svg version="1.0" xmlns="http://www.w3.org/2000/svg"
 width="640.000000pt" height="640.000000pt" viewBox="0 0 640.000000 640.000000"
 preserveAspectRatio="xMidYMid meet">
<metadata>
Created by potrace 1.11, written by Peter Selinger 2001-2013
</metadata>
<g transform="translate(0.000000,640.000000) scale(0.100000,-0.100000)"
fill="#000000" stroke="none">
<path d="M1920 5422 l-1275 -738 0 -1484 0 -1485 1270 -737 c698 -406 1272
-738 1275 -738 3 0 581 332 1285 739 l1280 738 7 1479 c4 813 4 1482 0 1486
-8 7 -2560 1478 -2564 1478 -2 -1 -577 -333 -1278 -738z m1542 -832 c219 -46
458 -159 621 -292 l29 -23 -142 -228 c-92 -146 -146 -225 -153 -220 -7 4 -37
24 -67 44 -90 61 -259 145 -350 175 -75 24 -101 28 -215 28 -123 1 -133 -1
-187 -27 -96 -47 -138 -117 -138 -229 0 -152 108 -232 437 -324 571 -159 796
-320 878 -629 25 -93 30 -292 11 -404 -45 -258 -192 -458 -418 -570 -154 -75
-228 -92 -443 -98 -213 -6 -320 8 -498 62 -214 65 -433 193 -615 360 -11 10
15 52 138 224 l152 211 47 -35 c162 -124 291 -195 441 -243 353 -112 637 -27
657 198 14 151 -82 236 -368 326 -477 149 -596 197 -717 289 -111 84 -189 200
-228 341 -25 92 -31 349 -9 455 66 331 314 561 673 625 107 19 338 11 464 -16z"/>
</g>
</svg>
